<?xml version="1.0" standalone="no"?>
<!DOCTYPE svg PUBLIC "-//W3C//DTD SVG 20010904//EN"
 "http://www.w3.org/TR/2001/REC-SVG-20010904/DTD/svg10.dtd">
<svg version="1.0" xmlns="http://www.w3.org/2000/svg"
 width="500.000000pt" height="500.000000pt" viewBox="0 0 500.000000 500.000000"
 preserveAspectRatio="xMidYMid meet">

<g transform="translate(0.000000,500.000000) scale(0.100000,-0.100000)"
fill="#000000" stroke="none">
<path d="M3292 3043 c-15 -6 -42 -56 -42 -78 0 -23 37 -55 64 -55 34 0 56 26
56 66 0 51 -38 83 -78 67z"/>
<path d="M2380 2744 c-49 -21 -99 -61 -121 -98 l-19 -31 0 47 c0 25 -3 53 -6
62 -7 19 -37 21 -52 3 -14 -16 -32 -248 -32 -402 0 -124 6 -145 41 -145 36 0
41 25 43 192 1 144 3 167 21 197 32 55 67 75 139 79 57 4 66 2 78 -17 14 -23
47 -28 66 -9 20 20 15 85 -9 106 -35 34 -94 40 -149 16z"/>
<path d="M1134 2731 c-88 -40 -144 -156 -144 -300 0 -165 57 -245 183 -258 67
-7 117 9 157 49 17 16 30 26 30 21 -1 -51 -23 -179 -35 -203 -16 -31 -18 -32
-73 -26 -139 13 -127 16 -127 -28 0 -57 34 -80 128 -84 70 -4 74 -3 103 27 17
18 36 50 43 72 20 67 40 258 42 410 3 168 -5 193 -89 271 -72 68 -142 83 -218
49z m178 -129 c39 -45 64 -134 49 -182 -16 -54 -67 -119 -106 -136 -41 -17
-103 -7 -144 24 -53 39 -60 184 -14 265 43 74 160 89 215 29z"/>
<path d="M1612 2737 c-24 -28 -42 -134 -42 -242 0 -226 55 -325 182 -325 58 0
109 35 139 97 l24 48 5 -65 c5 -64 5 -65 35 -65 l30 0 7 85 c3 47 6 172 7 278
1 170 -1 193 -15 199 -9 3 -24 2 -33 -4 -16 -10 -18 -33 -30 -329 -2 -48 -69
-119 -125 -133 -77 -19 -125 17 -145 110 -15 68 -14 128 4 232 9 49 13 97 10
108 -7 22 -37 25 -53 6z"/>
<path d="M2644 2713 c-51 -121 -43 -369 15 -468 27 -47 76 -75 131 -75 61 0
107 30 142 95 l28 50 0 -52 c0 -69 7 -83 40 -83 23 0 29 5 33 30 8 40 10 517
2 530 -10 17 -44 11 -55 -9 -5 -11 -10 -80 -10 -153 0 -73 -5 -151 -10 -173
-11 -51 -86 -124 -127 -127 -78 -4 -97 7 -124 67 -29 66 -33 142 -13 263 19
118 16 142 -16 142 -15 0 -26 -11 -36 -37z"/>
<path d="M3290 2724 c-6 -14 -10 -123 -10 -242 0 -119 -5 -250 -10 -289 -17
-132 -68 -193 -162 -193 -57 0 -93 -27 -83 -63 11 -34 35 -47 88 -47 110 0
184 50 213 144 19 62 39 668 23 698 -14 27 -48 23 -59 -8z"/>
<path d="M3675 2731 c-114 -52 -213 -239 -190 -360 15 -78 76 -156 147 -185
75 -32 137 -14 214 60 25 24 46 44 48 44 2 0 6 -14 10 -30 21 -107 166 -104
166 3 0 43 -15 55 -39 33 -22 -20 -45 -20 -61 -1 -9 11 -10 47 -5 144 8 146
-3 187 -66 250 -62 62 -146 78 -224 42z m177 -124 c51 -39 58 -72 33 -169 -18
-72 -38 -103 -85 -135 -64 -44 -185 -19 -223 46 -47 80 7 221 105 270 64 32
117 28 170 -12z"/>
</g>
</svg>
